<?xml version="1.0" encoding="UTF-8" standalone="no"?>
<!DOCTYPE svg PUBLIC "-//W3C//DTD SVG 1.1//EN" "http://www.w3.org/Graphics/SVG/1.1/DTD/svg11.dtd">
<!-- Created with Vectornator (http://vectornator.io/) -->
<svg height="100%" stroke-miterlimit="10" style="fill-rule:nonzero;clip-rule:evenodd;stroke-linecap:round;stroke-linejoin:round;" version="1.1" viewBox="0 0 254.496 194.016" width="100%" xml:space="preserve" xmlns="http://www.w3.org/2000/svg" xmlns:xlink="http://www.w3.org/1999/xlink">
<defs/>
<g id="Layer-1">
<path d="M131.992 182.605C106.992 182.605 83.41 165.019 83.41 165.019C83.41 165.019 74.3062 174.359 65.1666 168.452C56.4666 162.83 42.69 172.683 42.69 172.683C42.69 172.683 49.4718 152.515 60.1953 156.14C72.2191 160.204 75.5982 141.584 75.5982 141.584L69.9234 124.559C69.9234 124.559 55.0736 125.205 39.85 108.068C29.0565 95.9181 12.9225 93.3025 12.9225 93.3025C12.9225 93.3025 31.6904 92.3977 42.1251 100.079C52.378 107.627 63.41 105.019 63.41 105.019L68.7518 94.3354C68.7518 94.3354 57.2819 94.0983 57.4651 76.6994C57.5924 64.613 42.69 53.6125 42.69 53.6125C42.69 53.6125 60.1017 57.5775 62.5469 67.7983C65.9077 81.847 76.8951 78.0488 76.8951 78.0488L83.41 65.019C83.41 65.019 93.0777 51.0433 79.4318 46.4597C67.0475 42.2998 72.4575 13.9225 72.4575 13.9225C72.4575 13.9225 74.1487 37.3708 87.1529 38.4914C98.7516 39.4909 99.2574 58.7288 99.2574 58.7288L112.147 53.6125C112.147 53.6125 105.8 48.8897 112.147 36.8318C116.77 28.0516 112.147 13.9225 112.147 13.9225C112.147 13.9225 121.567 26.7298 119.075 35.7678C115.162 49.958 123.483 49.6694 123.483 49.6694C123.483 49.6694 128.507 46.1966 133.2 46.2894C137.893 46.3822 142.256 50.0406 142.256 50.0406C142.256 50.0406 144.542 35.8526 155.904 33.2893C166.668 30.8608 171.683 13.9225 171.683 13.9225C171.683 13.9225 172.17 34.5818 164.092 37.9531C153.757 42.2667 158.189 56.6403 158.189 56.6403L166.447 60.0606C166.447 60.0606 189.154 55.235 192.99 37.7322C198.164 14.127 221.295 13.9225 221.295 13.9225C221.295 13.9225 200.475 24.7414 200.042 41.4169C199.613 57.8921 180.977 66.0794 180.977 66.0794L188.922 79.8697C188.922 79.8697 203.164 88.1786 210.447 77.2265C221.049 61.2837 241.14 73.4575 241.14 73.4575C241.14 73.4575 226.961 66.5029 215.949 87.2523C210.27 97.9535 198.637 96.733 198.637 96.733L203.41 105.019C203.41 105.019 212.189 104.336 216.96 115.065C224.453 131.914 241.14 132.992 241.14 132.992C241.14 132.992 227.543 145.912 216.399 131.599C209.293 122.475 194.952 130.392 194.952 130.392L190.47 143.838C190.47 143.838 194.418 160.568 208.473 160.965C217.71 161.227 231.217 182.605 231.217 182.605C231.217 182.605 223.828 167.737 200.777 171.407C188.2 173.41 183.41 165.019 183.41 165.019C183.41 165.019 156.992 182.605 131.992 182.605Z" fill="#5309cd" fill-rule="nonzero" opacity="1" stroke="#000000" stroke-linecap="butt" stroke-linejoin="round" stroke-width="4"/>
<path d="M3 91.6635C3 87.0887 6.70866 83.38 11.2835 83.38C15.8584 83.38 19.567 87.0887 19.567 91.6635C19.567 96.2384 15.8584 99.947 11.2835 99.947C6.70866 99.947 3 96.2384 3 91.6635Z" fill="#ffffff" fill-rule="nonzero" opacity="1" stroke="#000000" stroke-linecap="butt" stroke-linejoin="round" stroke-width="3"/>
<path d="M32.7675 55.2515C32.7675 50.6766 36.4762 46.968 41.051 46.968C45.6259 46.968 49.3345 50.6766 49.3345 55.2515C49.3345 59.8263 45.6259 63.535 41.051 63.535C36.4762 63.535 32.7675 59.8263 32.7675 55.2515Z" fill="#ffffff" fill-rule="nonzero" opacity="1" stroke="#000000" stroke-linecap="butt" stroke-linejoin="round" stroke-width="3"/>
<path d="M62.535 12.2835C62.535 7.70866 66.2437 4 70.8185 4C75.3934 4 79.102 7.70866 79.102 12.2835C79.102 16.8584 75.3934 20.567 70.8185 20.567C66.2437 20.567 62.535 16.8584 62.535 12.2835Z" fill="#ffffff" fill-rule="nonzero" opacity="1" stroke="#000000" stroke-linecap="butt" stroke-linejoin="round" stroke-width="3"/>
<path d="M211.372 15.5615C211.372 10.9866 215.081 7.27797 219.656 7.27797C224.231 7.27797 227.94 10.9866 227.94 15.5615C227.94 20.1363 224.231 23.845 219.656 23.845C215.081 23.845 211.372 20.1363 211.372 15.5615Z" fill="#ffffff" fill-rule="nonzero" opacity="1" stroke="#000000" stroke-linecap="butt" stroke-linejoin="round" stroke-width="3"/>
<path d="M230.608 70.7515C230.608 66.1766 234.316 62.468 238.891 62.468C243.466 62.468 247.175 66.1766 247.175 70.7515C247.175 75.3263 243.466 79.035 238.891 79.035C234.316 79.035 230.608 75.3263 230.608 70.7515Z" fill="#ffffff" fill-rule="nonzero" opacity="1" stroke="#000000" stroke-linecap="butt" stroke-linejoin="round" stroke-width="3"/>
<path d="M234.495 131.354C234.495 126.779 238.204 123.07 242.779 123.07C247.354 123.07 251.062 126.779 251.062 131.354C251.062 135.928 247.354 139.637 242.779 139.637C238.204 139.637 234.495 135.928 234.495 131.354Z" fill="#ffffff" fill-rule="nonzero" opacity="1" stroke="#000000" stroke-linecap="butt" stroke-linejoin="round" stroke-width="3"/>
<path d="M224.573 180.966C224.573 176.391 228.282 172.683 232.856 172.683C237.431 172.683 241.14 176.391 241.14 180.966C241.14 185.541 237.431 189.25 232.856 189.25C228.282 189.25 224.573 185.541 224.573 180.966Z" fill="#ffffff" fill-rule="nonzero" opacity="1" stroke="#000000" stroke-linecap="butt" stroke-linejoin="round" stroke-width="3"/>
<path d="M32.7675 174.321C32.7675 169.747 36.4762 166.038 41.051 166.038C45.6259 166.038 49.3345 169.747 49.3345 174.321C49.3345 178.896 45.6259 182.605 41.051 182.605C36.4762 182.605 32.7675 178.896 32.7675 174.321Z" fill="#ffffff" fill-rule="nonzero" opacity="1" stroke="#000000" stroke-linecap="butt" stroke-linejoin="round" stroke-width="3"/>
<path d="M103.41 13.3025C103.41 8.72764 107.119 5.01898 111.694 5.01898C116.268 5.01898 119.977 8.72764 119.977 13.3025C119.977 17.8774 116.268 21.586 111.694 21.586C107.119 21.586 103.41 17.8774 103.41 13.3025Z" fill="#ffffff" fill-rule="nonzero" opacity="1" stroke="#000000" stroke-linecap="butt" stroke-linejoin="round" stroke-width="3"/>
<path d="M161.76 15.5615C161.76 10.9866 165.469 7.27797 170.044 7.27797C174.618 7.27797 178.327 10.9866 178.327 15.5615C178.327 20.1363 174.618 23.845 170.044 23.845C165.469 23.845 161.76 20.1363 161.76 15.5615Z" fill="#ffffff" fill-rule="nonzero" opacity="1" stroke="#000000" stroke-linecap="butt" stroke-linejoin="round" stroke-width="3"/>
<path d="M92.3025 123.07C92.3025 123.07 109.706 140.434 122.07 142.915C134.434 145.396 129.434 145.396 141.915 142.915C154.396 140.434 171.683 123.07 171.683 123.07C171.683 123.07 169.235 137.915 161.76 142.915C154.285 147.915 136.992 162.76 131.992 162.76C126.992 162.76 109.75 147.915 102.225 142.915C94.7001 137.915 92.3025 123.07 92.3025 123.07Z" fill="#ffffff" fill-rule="nonzero" opacity="1" stroke="#000000" stroke-linecap="butt" stroke-linejoin="round" stroke-width="4"/>
<path d="M92.3025 103.225C92.3025 92.1793 115.424 73.4575 131.992 73.4575C148.561 73.4575 171.683 92.1793 171.683 103.225C171.683 114.271 148.561 132.992 131.992 132.992C115.424 132.992 92.3025 114.271 92.3025 103.225Z" fill="#ffffff" fill-rule="nonzero" opacity="1" stroke="#000000" stroke-linecap="butt" stroke-linejoin="round" stroke-width="4"/>
<path d="M102.944 133.663L106.829 145.773L111.807 139.967L115.734 151.428L122.07 142.915L125.633 159.513L133.98 144.916L136.178 159.408L141.915 142.915L149.305 151.582L150.747 139.855L156.657 144.203L159.692 133.318L166.284 136.22" fill="none" opacity="1" stroke="#000000" stroke-linecap="square" stroke-linejoin="round" stroke-width="2"/>
<g opacity="1">
<path d="M102.225 103.225C102.225 86.7849 115.552 73.4575 131.993 73.4575C148.433 73.4575 161.76 86.7849 161.76 103.225C161.76 119.665 148.433 132.992 131.993 132.992C115.552 132.992 102.225 119.665 102.225 103.225Z" fill="#68c40c" fill-rule="nonzero" opacity="1" stroke="none"/>
<path d="M122.07 103.225C122.07 86.7849 126.512 73.4575 131.992 73.4575C137.473 73.4575 141.915 86.7849 141.915 103.225C141.915 119.665 137.473 132.992 131.992 132.992C126.512 132.992 122.07 119.665 122.07 103.225Z" fill="#000000" fill-rule="nonzero" opacity="1" stroke="#000000" stroke-linecap="butt" stroke-linejoin="round" stroke-width="4"/>
<path d="M130.328 86.1258C131.559 83.0664 139.33 83.1577 144.139 85.0933C148.948 87.029 155.194 94.5341 153.962 97.5934C152.731 100.653 147.378 92.1043 142.569 90.1686C137.76 88.233 129.097 89.1851 130.328 86.1258Z" fill="#ffffff" fill-rule="nonzero" opacity="1" stroke="none"/>
</g>
<g opacity="1">
<path d="M35.8723 174.462C35.8723 170.737 38.1362 167.718 40.9289 167.718C43.7215 167.718 45.9855 170.737 45.9855 174.462C45.9855 178.186 43.7215 181.206 40.9289 181.206C38.1362 181.206 35.8723 178.186 35.8723 174.462Z" fill="#68c40c" fill-rule="nonzero" opacity="1" stroke="none"/>
<path d="M39.67 174.467C39.67 170.74 40.2856 167.718 41.0449 167.718C41.8042 167.718 42.4198 170.74 42.4198 174.467C42.4198 178.195 41.8042 181.217 41.0449 181.217C40.2856 181.217 39.67 178.195 39.67 174.467Z" fill="#000000" fill-rule="nonzero" opacity="1" stroke="#000000" stroke-linecap="butt" stroke-linejoin="round" stroke-width="1"/>
<path d="M40.9166 171.481C41.1586 170.879 42.6861 170.897 43.6315 171.278C44.5769 171.658 45.8047 173.134 45.5626 173.735C45.3205 174.337 44.2683 172.656 43.3229 172.276C42.3775 171.895 40.6745 172.082 40.9166 171.481Z" fill="#ffffff" fill-rule="nonzero" opacity="1" stroke="none"/>
</g>
<g opacity="1">
<path d="M6.13619 92.0383C6.13619 88.3137 8.4001 85.2944 11.1928 85.2944C13.9855 85.2944 16.2494 88.3137 16.2494 92.0383C16.2494 95.7629 13.9855 98.7822 11.1928 98.7822C8.4001 98.7822 6.13619 95.7629 6.13619 92.0383Z" fill="#68c40c" fill-rule="nonzero" opacity="1" stroke="none"/>
<path d="M9.93396 92.044C9.93396 88.3163 10.5495 85.2944 11.3088 85.2944C12.0681 85.2944 12.6837 88.3163 12.6837 92.044C12.6837 95.7718 12.0681 98.7937 11.3088 98.7937C10.5495 98.7937 9.93396 95.7718 9.93396 92.044Z" fill="#000000" fill-rule="nonzero" opacity="1" stroke="#000000" stroke-linecap="butt" stroke-linejoin="round" stroke-width="1"/>
<path d="M11.1805 89.0576C11.4226 88.4561 12.95 88.4741 13.8954 88.8546C14.8408 89.2351 16.0686 90.7105 15.8265 91.3119C15.5844 91.9133 14.5322 90.2328 13.5868 89.8523C12.6414 89.4718 10.9384 89.659 11.1805 89.0576Z" fill="#ffffff" fill-rule="nonzero" opacity="1" stroke="none"/>
</g>
<g opacity="1">
<path d="M36.0243 55.071C36.0243 51.3464 38.2882 48.3271 41.0809 48.3271C43.8735 48.3271 46.1375 51.3464 46.1375 55.071C46.1375 58.7956 43.8735 61.815 41.0809 61.815C38.2882 61.815 36.0243 58.7956 36.0243 55.071Z" fill="#68c40c" fill-rule="nonzero" opacity="1" stroke="none"/>
<path d="M39.822 55.0767C39.822 51.349 40.4376 48.3271 41.1969 48.3271C41.9562 48.3271 42.5717 51.349 42.5717 55.0767C42.5717 58.8045 41.9562 61.8264 41.1969 61.8264C40.4376 61.8264 39.822 58.8045 39.822 55.0767Z" fill="#000000" fill-rule="nonzero" opacity="1" stroke="#000000" stroke-linecap="butt" stroke-linejoin="round" stroke-width="1"/>
<path d="M41.0686 52.0903C41.3106 51.4889 42.8381 51.5068 43.7835 51.8873C44.7289 52.2678 45.9566 53.7432 45.7146 54.3446C45.4725 54.946 44.4203 53.2655 43.4749 52.885C42.5295 52.5045 40.8265 52.6917 41.0686 52.0903Z" fill="#ffffff" fill-rule="nonzero" opacity="1" stroke="none"/>
</g>
<g opacity="1">
<path d="M65.8176 12.4064C65.8176 8.68178 68.0815 5.66241 70.8742 5.66241C73.6669 5.66241 75.9308 8.68178 75.9308 12.4064C75.9308 16.1309 73.6669 19.1503 70.8742 19.1503C68.0815 19.1503 65.8176 16.1309 65.8176 12.4064Z" fill="#68c40c" fill-rule="nonzero" opacity="1" stroke="none"/>
<path d="M69.6154 12.4121C69.6154 8.68435 70.2309 5.66241 70.9903 5.66241C71.7496 5.66241 72.3651 8.68435 72.3651 12.4121C72.3651 16.1398 71.7496 19.1618 70.9903 19.1618C70.2309 19.1618 69.6154 16.1398 69.6154 12.4121Z" fill="#000000" fill-rule="nonzero" opacity="1" stroke="#000000" stroke-linecap="butt" stroke-linejoin="round" stroke-width="1"/>
<path d="M70.8619 9.42561C71.104 8.8242 72.6315 8.84214 73.5768 9.22266C74.5222 9.60318 75.75 11.0785 75.5079 11.6799C75.2659 12.2813 74.2136 10.6009 73.2682 10.2204C72.3228 9.83985 70.6199 10.027 70.8619 9.42561Z" fill="#ffffff" fill-rule="nonzero" opacity="1" stroke="none"/>
</g>
<g opacity="1">
<path d="M106.739 13.2333C106.739 9.50876 109.003 6.48939 111.795 6.48939C114.588 6.48939 116.852 9.50876 116.852 13.2333C116.852 16.9579 114.588 19.9773 111.795 19.9773C109.003 19.9773 106.739 16.9579 106.739 13.2333Z" fill="#68c40c" fill-rule="nonzero" opacity="1" stroke="none"/>
<path d="M110.536 13.2391C110.536 9.51133 111.152 6.48939 111.911 6.48939C112.671 6.48939 113.286 9.51133 113.286 13.2391C113.286 16.9668 112.671 19.9887 111.911 19.9887C111.152 19.9887 110.536 16.9668 110.536 13.2391Z" fill="#000000" fill-rule="nonzero" opacity="1" stroke="#000000" stroke-linecap="butt" stroke-linejoin="round" stroke-width="1"/>
<path d="M111.783 10.2526C112.025 9.65118 113.553 9.66912 114.498 10.0496C115.443 10.4302 116.671 11.9055 116.429 12.5069C116.187 13.1083 115.135 11.4279 114.189 11.0473C113.244 10.6668 111.541 10.854 111.783 10.2526Z" fill="#ffffff" fill-rule="nonzero" opacity="1" stroke="none"/>
</g>
<g opacity="1">
<path d="M165.021 15.7004C165.021 11.9758 167.285 8.95646 170.077 8.95646C172.87 8.95646 175.134 11.9758 175.134 15.7004C175.134 19.425 172.87 22.4444 170.077 22.4444C167.285 22.4444 165.021 19.425 165.021 15.7004Z" fill="#68c40c" fill-rule="nonzero" opacity="1" stroke="none"/>
<path d="M168.819 15.7061C168.819 11.9784 169.434 8.95646 170.193 8.95646C170.953 8.95646 171.568 11.9784 171.568 15.7061C171.568 19.4339 170.953 22.4558 170.193 22.4558C169.434 22.4558 168.819 19.4339 168.819 15.7061Z" fill="#000000" fill-rule="nonzero" opacity="1" stroke="#000000" stroke-linecap="butt" stroke-linejoin="round" stroke-width="1"/>
<path d="M170.065 12.7197C170.307 12.1183 171.835 12.1362 172.78 12.5167C173.725 12.8972 174.953 14.3726 174.711 14.974C174.469 15.5754 173.417 13.8949 172.471 13.5144C171.526 13.1339 169.823 13.3211 170.065 12.7197Z" fill="#ffffff" fill-rule="nonzero" opacity="1" stroke="none"/>
</g>
<g opacity="1">
<path d="M214.834 15.7891C214.834 12.0645 217.098 9.04517 219.891 9.04517C222.684 9.04517 224.948 12.0645 224.948 15.7891C224.948 19.5137 222.684 22.5331 219.891 22.5331C217.098 22.5331 214.834 19.5137 214.834 15.7891Z" fill="#68c40c" fill-rule="nonzero" opacity="1" stroke="none"/>
<path d="M218.632 15.7948C218.632 12.0671 219.248 9.04517 220.007 9.04517C220.766 9.04517 221.382 12.0671 221.382 15.7948C221.382 19.5226 220.766 22.5445 220.007 22.5445C219.248 22.5445 218.632 19.5226 218.632 15.7948Z" fill="#000000" fill-rule="nonzero" opacity="1" stroke="#000000" stroke-linecap="butt" stroke-linejoin="round" stroke-width="1"/>
<path d="M219.879 12.8084C220.121 12.207 221.648 12.2249 222.594 12.6054C223.539 12.9859 224.767 14.4613 224.525 15.0627C224.283 15.6641 223.23 13.9836 222.285 13.6031C221.34 13.2226 219.637 13.4098 219.879 12.8084Z" fill="#ffffff" fill-rule="nonzero" opacity="1" stroke="none"/>
</g>
<g opacity="1">
<path d="M234.408 70.6228C234.408 66.8982 236.672 63.8789 239.465 63.8789C242.258 63.8789 244.522 66.8982 244.522 70.6228C244.522 74.3474 242.258 77.3668 239.465 77.3668C236.672 77.3668 234.408 74.3474 234.408 70.6228Z" fill="#68c40c" fill-rule="nonzero" opacity="1" stroke="none"/>
<path d="M238.206 70.6285C238.206 66.9008 238.822 63.8789 239.581 63.8789C240.34 63.8789 240.956 66.9008 240.956 70.6285C240.956 74.3563 240.34 77.3782 239.581 77.3782C238.822 77.3782 238.206 74.3563 238.206 70.6285Z" fill="#000000" fill-rule="nonzero" opacity="1" stroke="#000000" stroke-linecap="butt" stroke-linejoin="round" stroke-width="1"/>
<path d="M239.453 67.6421C239.695 67.0407 241.222 67.0586 242.168 67.4391C243.113 67.8196 244.341 69.295 244.099 69.8964C243.857 70.4978 242.804 68.8173 241.859 68.4368C240.914 68.0563 239.211 68.2435 239.453 67.6421Z" fill="#ffffff" fill-rule="nonzero" opacity="1" stroke="none"/>
</g>
<g opacity="1">
<path d="M237.966 131.48C237.966 127.755 240.23 124.736 243.022 124.736C245.815 124.736 248.079 127.755 248.079 131.48C248.079 135.205 245.815 138.224 243.022 138.224C240.23 138.224 237.966 135.205 237.966 131.48Z" fill="#68c40c" fill-rule="nonzero" opacity="1" stroke="none"/>
<path d="M241.763 131.486C241.763 127.758 242.379 124.736 243.138 124.736C243.898 124.736 244.513 127.758 244.513 131.486C244.513 135.214 243.898 138.235 243.138 138.235C242.379 138.235 241.763 135.214 241.763 131.486Z" fill="#000000" fill-rule="nonzero" opacity="1" stroke="#000000" stroke-linecap="butt" stroke-linejoin="round" stroke-width="1"/>
<path d="M243.01 128.499C243.252 127.898 244.78 127.916 245.725 128.296C246.67 128.677 247.898 130.152 247.656 130.754C247.414 131.355 246.362 129.675 245.416 129.294C244.471 128.914 242.768 129.101 243.01 128.499Z" fill="#ffffff" fill-rule="nonzero" opacity="1" stroke="none"/>
</g>
<g opacity="1">
<path d="M227.909 180.954C227.909 177.229 230.173 174.21 232.966 174.21C235.758 174.21 238.022 177.229 238.022 180.954C238.022 184.678 235.758 187.698 232.966 187.698C230.173 187.698 227.909 184.678 227.909 180.954Z" fill="#68c40c" fill-rule="nonzero" opacity="1" stroke="none"/>
<path d="M231.707 180.959C231.707 177.232 232.322 174.21 233.082 174.21C233.841 174.21 234.456 177.232 234.456 180.959C234.456 184.687 233.841 187.709 233.082 187.709C232.322 187.709 231.707 184.687 231.707 180.959Z" fill="#000000" fill-rule="nonzero" opacity="1" stroke="#000000" stroke-linecap="butt" stroke-linejoin="round" stroke-width="1"/>
<path d="M232.953 177.973C233.195 177.371 234.723 177.389 235.668 177.77C236.614 178.15 237.841 179.626 237.599 180.227C237.357 180.829 236.305 179.148 235.36 178.768C234.414 178.387 232.711 178.574 232.953 177.973Z" fill="#ffffff" fill-rule="nonzero" opacity="1" stroke="none"/>
</g>
</g>
</svg>
